<svg width="40" height="40" viewBox="0 0 40 40" fill="none" xmlns="http://www.w3.org/2000/svg">
<circle cx="20" cy="20" r="20" fill="#344A51"/>
<path d="M22 20C22 20.74 21.6 21.38 21 21.72V30H19V21.72C18.4 21.37 18 20.74 18 20C18 18.9 18.9 18 20 18C21.1 18 22 18.9 22 20ZM20 14C16.69 14 14 16.69 14 20C14 21.74 14.75 23.31 15.94 24.4L17.36 22.98C16.53 22.25 16 21.19 16 20C16 17.79 17.79 16 20 16C22.21 16 24 17.79 24 20C24 21.19 23.47 22.25 22.64 22.98L24.06 24.4C25.25 23.31 26 21.74 26 20C26 16.69 23.31 14 20 14ZM20 10C14.48 10 10 14.48 10 20C10 22.85 11.2 25.41 13.11 27.24L14.53 25.82C12.98 24.36 12 22.29 12 20C12 15.59 15.59 12 20 12C24.41 12 28 15.59 28 20C28 22.29 27.02 24.36 25.47 25.82L26.89 27.24C28.8 25.41 30 22.85 30 20C30 14.48 25.52 10 20 10Z" fill="white"/>
</svg>
